<?xml version="1.0" standalone="no"?>
<!DOCTYPE svg PUBLIC "-//W3C//DTD SVG 20010904//EN"
 "http://www.w3.org/TR/2001/REC-SVG-20010904/DTD/svg10.dtd">
<svg version="1.0" xmlns="http://www.w3.org/2000/svg"
 width="1280.000000pt" height="1092.000000pt" viewBox="0 0 1280.000000 1092.000000"
 preserveAspectRatio="xMidYMid meet">
<g transform="translate(0.000000,1092.000000) scale(0.100000,-0.100000)"
fill="#000000" stroke="none">
<path d="M9474 10903 c-6 -10 -201 -268 -433 -573 -270 -354 -429 -555 -440
-555 -10 0 -250 244 -550 558 -293 306 -535 557 -536 557 -2 0 -286 -272 -631
-605 -345 -333 -630 -605 -634 -605 -3 0 -255 205 -559 455 -305 250 -557 455
-561 455 -9 0 -145 -203 -270 -405 -269 -433 -437 -777 -490 -1000 -17 -69
-82 -513 -200 -1360 -81 -580 -120 -937 -120 -1100 0 -343 25 -658 72 -922 20
-116 20 -149 -2 -127 -5 5 -106 236 -224 513 -118 277 -219 508 -224 513 -5 5
-145 -197 -318 -456 -170 -256 -315 -466 -323 -466 -7 0 -117 87 -245 194
-127 107 -317 267 -423 356 l-192 161 -411 -290 c-226 -160 -419 -291 -430
-291 -10 0 -171 52 -357 115 -186 63 -343 115 -349 115 -21 0 -143 -297 -245
-598 -227 -674 -343 -1285 -376 -1992 -8 -179 33 -638 78 -880 165 -869 613
-1561 1319 -2039 480 -325 1040 -534 1590 -595 394 -43 452 -44 780 -11 1078
108 2195 611 3259 1469 239 191 538 466 528 483 -4 6 -183 149 -398 318 -214
169 -393 313 -396 320 -12 34 11 33 105 -1 269 -99 552 -174 817 -218 266 -44
363 -51 730 -51 375 0 466 7 756 56 762 127 1492 468 2119 988 138 115 384
358 501 496 488 574 802 1219 928 1900 83 449 103 988 48 1255 -25 120 -41
224 -107 710 -38 277 -54 352 -124 604 -31 110 -56 219 -56 244 0 145 -143
633 -355 1207 -105 286 -258 675 -264 675 -3 0 -258 -177 -566 -392 -308 -214
-565 -392 -571 -395 -15 -6 29 -54 -577 635 l-521 592 -71 0 c-56 0 -72 -4
-81 -17z"/>
</g>
</svg>
